HIERARCHY
ROOT Pelvis
{
	OFFSET 0.000000 0.941512 0.000000
	CHANNELS 6 Xposition Yposition Zposition Zrotation Yrotation Xrotation 
	JOINT Pelvis_L_Hip
	{
		OFFSET 0.000000 0.000000 0.000000
		CHANNELS 3 Zrotation Yrotation Xrotation
		JOINT L_Hip
		{
			OFFSET 0.062321 -0.080322 -0.016990
			CHANNELS 3 Zrotation Yrotation Xrotation
			JOINT L_Knee
			{
				OFFSET 0.093051 -0.381305 -0.029784
				CHANNELS 3 Zrotation Yrotation Xrotation
				JOINT L_Ankle
				{
					OFFSET -0.010371 -0.431000 -0.033614
					CHANNELS 3 Zrotation Yrotation Xrotation
					End Site #name: L_Foot
					{
						OFFSET 0.069299 -0.038670 0.119418
					}
				}
			}
		}
	}
	JOINT Pelvis_R_Hip
	{
		OFFSET 0.000000 0.000000 0.000000
		CHANNELS 3 Zrotation Yrotation Xrotation
		JOINT R_Hip
		{
			OFFSET -0.055334 -0.094904 -0.002373
			CHANNELS 3 Zrotation Yrotation Xrotation
			JOINT R_Knee
			{
				OFFSET -0.064207 -0.384370 -0.019592
				CHANNELS 3 Zrotation Yrotation Xrotation
				JOINT R_Ankle
				{
					OFFSET 0.025418 -0.419734 -0.065953
					CHANNELS 3 Zrotation Yrotation Xrotation
					End Site #name: R_Foot
					{
						OFFSET -0.057233 -0.039888 0.132134
					}
				}
			}
		}
	}
	JOINT Pelvis_Spine1
	{
		OFFSET 0.000000 0.000000 0.000000
		CHANNELS 3 Zrotation Yrotation Xrotation
		JOINT Spine1
		{
			OFFSET -0.005562 0.124093 -0.043360
			CHANNELS 3 Zrotation Yrotation Xrotation
			JOINT Spine2
			{
				OFFSET 0.012244 0.139499 0.029894
				CHANNELS 3 Zrotation Yrotation Xrotation
				JOINT Spine3
				{
					OFFSET -0.002556 0.056561 0.009225
					CHANNELS 3 Zrotation Yrotation Xrotation
					JOINT Spine3_Neck
					{
						OFFSET 0.000000 0.000000 0.000000
						CHANNELS 3 Zrotation Yrotation Xrotation
						JOINT Neck
						{
							OFFSET -0.005205 0.217920 -0.024551
							CHANNELS 3 Zrotation Yrotation Xrotation
							End Site #name: Head
							{
								OFFSET 0.002365 0.091850 0.046637
							}
						}
					}
					JOINT Spine3_L_Collar
					{
						OFFSET 0.000000 0.000000 0.000000
						CHANNELS 3 Zrotation Yrotation Xrotation
						JOINT L_Collar
						{
							OFFSET 0.072225 0.116603 -0.009480
							CHANNELS 3 Zrotation Yrotation Xrotation
							JOINT L_Shoulder
							{
								OFFSET 0.115937 -0.058643 -0.021018
								CHANNELS 3 Zrotation Yrotation Xrotation
								JOINT L_Elbow
								{
									OFFSET 0.021994 -0.254722 -0.024492
									CHANNELS 3 Zrotation Yrotation Xrotation
									End Site #name: L_Wrist
									{
										OFFSET 0.048810 -0.240214 0.103329
									}
								}
							}
						}
					}
					JOINT Spine3_R_Collar
					{
						OFFSET 0.000000 0.000000 0.000000
						CHANNELS 3 Zrotation Yrotation Xrotation
						JOINT R_Collar
						{
							OFFSET -0.073372 0.120704 -0.024611
							CHANNELS 3 Zrotation Yrotation Xrotation
							JOINT R_Shoulder
							{
								OFFSET -0.108089 -0.054969 -0.020504
								CHANNELS 3 Zrotation Yrotation Xrotation
								JOINT R_Elbow
								{
									OFFSET -0.033684 -0.260739 0.009889
									CHANNELS 3 Zrotation Yrotation Xrotation
									End Site #name: R_Wrist
									{
										OFFSET -0.067980 -0.232763 0.118463
									}
								}
							}
						}
					}
				}
			}
		}
	}
}
MOTION
Frames: 7
Frame Time: 0.041667
0.890549 1.213232 -0.546432 5.511047 -30.437020 3.838241 0.000000 0.000000 0.000000 5.375079 -2.783480 -15.051497 12.127129 -2.381481 35.178733 -23.883235 -11.486920 32.736188 0.000000 0.000000 0.000000 -4.273654 3.420534 -19.397064 4.642915 1.040908 19.536140 12.820580 -4.961388 24.766634 0.000000 0.000000 0.000000 8.742762 -2.303695 4.329219 -5.790856 0.958622 0.334120 -5.686744 -17.202425 5.040642 0.000000 0.000000 0.000000 0.334379 2.118913 13.549680 0.000000 0.000000 0.000000 27.381334 -17.420690 -16.970313 -23.985010 1.327442 -5.013563 -42.329523 -43.740455 -30.091882 0.000000 0.000000 0.000000 -35.318164 -6.607052 26.207105 17.741462 -13.135807 40.099461 12.022571 30.202175 -43.949557 
0.923602 1.168719 -0.558562 7.201597 -20.320745 4.535436 0.000000 0.000000 0.000000 7.696441 -2.878818 -15.563337 2.939694 0.073608 34.994655 -17.067549 -1.545672 29.184540 0.000000 0.000000 0.000000 -5.413844 2.962485 -18.626912 -1.197116 2.726646 21.650252 18.651069 2.488072 30.403218 0.000000 0.000000 0.000000 6.042616 -1.676337 3.125550 -4.751416 0.747635 -0.113861 -3.201705 -11.313926 4.418788 0.000000 0.000000 0.000000 1.435807 0.909147 17.481377 0.000000 0.000000 0.000000 27.985849 -13.365460 -10.745034 -16.412408 0.169826 -6.825805 -42.203996 -43.146704 -29.524425 0.000000 0.000000 0.000000 -37.130977 -3.759060 20.228165 10.807036 -11.349661 45.316355 22.179554 35.688384 -35.978497 
0.967784 1.100230 -0.571619 8.117130 -8.534266 5.058502 0.000000 0.000000 0.000000 7.440962 -3.332378 -16.477651 -2.443226 1.049616 34.506592 -16.743725 2.451786 29.800763 0.000000 0.000000 0.000000 -5.155625 2.208354 -14.925367 -3.632478 2.680464 18.751716 19.289928 8.557677 28.876007 0.000000 0.000000 0.000000 7.489536 -2.150539 3.396662 -4.470671 0.623201 -1.194963 -2.491824 -6.590518 4.804746 0.000000 0.000000 0.000000 1.765968 -0.588464 17.708125 0.000000 0.000000 0.000000 29.498821 -11.564093 -6.629925 -11.011494 -0.036339 -6.348587 -24.307169 -36.552953 -43.640636 0.000000 0.000000 0.000000 -40.744255 -1.166348 15.103236 6.019967 -9.477094 47.643152 30.193038 37.539492 -27.795084 
0.989564 1.006173 -0.594067 9.280414 -3.094216 6.574180 0.000000 0.000000 0.000000 7.711732 -2.880062 -13.058252 -8.258142 2.492065 29.397306 -16.598783 -0.027200 26.822935 0.000000 0.000000 0.000000 -1.533510 2.666997 -16.778922 -6.125962 4.369289 26.108686 4.249461 2.761022 7.141802 0.000000 0.000000 0.000000 3.113768 -0.953241 2.265688 -3.890201 0.633213 0.015509 0.357141 -1.727749 4.167046 0.000000 0.000000 0.000000 1.875805 -1.454743 16.826021 0.000000 0.000000 0.000000 29.684070 -6.029464 0.124990 -6.399102 -0.422503 -7.563480 -5.733400 -21.281617 -52.764613 0.000000 0.000000 0.000000 -41.254114 1.861794 9.299768 0.827612 -7.130324 48.540710 33.618584 36.283408 -22.037708 
1.027763 0.910974 -0.625586 8.365193 2.079665 6.907938 0.000000 0.000000 0.000000 5.448481 -2.582309 -10.785744 -6.379721 1.492218 32.689300 -0.009420 -2.284944 -1.208219 0.000000 0.000000 0.000000 -2.744162 3.586922 -24.850290 -2.621685 4.151360 43.278720 -6.229890 -5.310912 -12.380985 0.000000 0.000000 0.000000 4.531950 -1.679357 4.965494 -3.955162 0.522288 -1.553848 1.209220 2.124956 7.423069 0.000000 0.000000 0.000000 2.087959 -1.568406 7.460607 0.000000 0.000000 0.000000 29.622419 -2.522582 4.807841 -2.471757 -0.854779 -10.680018 4.296265 -8.124897 -49.654552 0.000000 0.000000 0.000000 -42.466015 4.118101 4.655541 -0.142531 -5.633737 42.112389 25.666993 27.418657 -19.879796 
1.047508 0.867183 -0.645054 8.822640 2.959734 4.536628 0.000000 0.000000 0.000000 5.212834 -1.928174 -7.500961 -8.652635 2.105489 29.852541 7.771683 1.511174 -12.944017 0.000000 0.000000 0.000000 -5.792520 3.895750 -33.098471 -0.154156 3.881736 60.820537 -5.603555 -3.991199 -11.381571 0.000000 0.000000 0.000000 0.336401 -1.173353 11.319828 -2.462486 0.304582 -1.471510 2.713635 4.858991 7.190608 0.000000 0.000000 0.000000 2.950283 -2.024901 5.668693 0.000000 0.000000 0.000000 27.371712 -0.123954 6.927714 2.611155 -0.605328 -5.368518 3.877528 -6.095030 -40.518169 0.000000 0.000000 0.000000 -38.347419 5.872668 1.116476 2.687817 -4.894677 31.965522 3.381502 9.168674 -20.265704 
1.054649 0.867305 -0.648242 7.622828 5.856006 4.943797 0.000000 0.000000 0.000000 6.247580 -2.875238 -12.232686 -7.919939 1.776862 36.107718 7.740891 1.157280 -12.741825 0.000000 0.000000 0.000000 -3.425461 3.808882 -29.115630 -3.370137 5.112898 55.951574 -6.621095 -3.823623 -14.544352 0.000000 0.000000 0.000000 -0.114586 -0.926873 9.588694 -0.777687 0.079279 -0.930250 2.681080 5.766796 7.535261 0.000000 0.000000 0.000000 3.703518 -2.549956 5.756025 0.000000 0.000000 0.000000 25.561049 0.893470 7.788574 3.032725 -0.249558 1.252879 -2.481779 -7.940919 -27.135687 0.000000 0.000000 0.000000 -35.731572 5.121507 0.733312 2.989321 -3.610287 23.671543 -3.660513 4.243304 -21.878852 
